<?xml version="1.0"?>
<svg width="1024" height="1024" xmlns="http://www.w3.org/2000/svg" xmlns:svg="http://www.w3.org/2000/svg" version="1.1">
 <g class="layer" display="inline">
  <title>Layer 1</title>
  <path d="m321.3,292.49c1.56,-0.01 3.13,-0.01 4.69,-0.02c4.25,-0.02 8.5,-0.01 12.74,0c4.6,0 9.2,-0.01 13.8,-0.02c8.99,-0.03 17.98,-0.03 26.97,-0.02c7.32,0.01 14.63,0.01 21.95,0c1.04,0 2.08,0 3.16,0c2.12,0 4.24,-0.01 6.36,-0.01c19.86,-0.01 39.72,-0.01 59.58,0.01c18.14,0.02 36.27,0 54.4,-0.03c18.66,-0.03 37.32,-0.04 55.99,-0.03c2.11,0 4.22,0 6.34,0c1.04,0 2.08,0.01 3.15,0.01c7.29,0 14.59,-0.01 21.89,-0.03c8.9,-0.01 17.8,-0.01 26.71,0.01c4.53,0.01 9.07,0.01 13.6,-0.01c44.39,-0.16 44.39,-0.16 62.37,12.65c0.66,0.46 1.32,0.93 2,1.4c10.11,7.83 17.56,21.11 20,33.6c0.22,3.63 0.15,7.24 0.09,10.87c0,2.13 0,4.25 0,6.37c-0.01,3.32 -0.03,6.64 -0.09,9.96c-0.67,12.53 -0.67,12.53 2.94,24.15c2.24,2.2 4.5,3.86 7.06,5.65c7.53,9.83 11.13,22.53 11.11,34.81c0,0.67 0,1.33 0,2.02c0,2.18 -0.01,4.36 -0.02,6.54c0,1.52 0,3.03 0,4.55c-0.01,3.98 -0.02,7.97 -0.03,11.95c-0.01,4.07 -0.01,8.14 -0.02,12.21c-0.01,7.97 -0.02,15.95 -0.04,23.92c1.09,0.15 2.18,0.29 3.31,0.44c7.16,1.1 10.69,4.3 15.27,9.63c2.22,3.03 2.54,5.61 2.58,9.25c0.01,0.88 0.02,1.77 0.03,2.67c0,0.97 0.01,1.93 0.01,2.93c0.01,1.02 0.02,2.03 0.03,3.08c0.03,3.38 0.05,6.76 0.07,10.13c0.01,1.16 0.02,2.31 0.02,3.5c0.04,6.11 0.06,12.23 0.08,18.34c0.02,5.05 0.05,10.1 0.1,15.16c0.06,6.1 0.09,12.21 0.1,18.31c0.01,2.32 0.03,4.65 0.06,6.97c0.04,3.26 0.04,6.52 0.03,9.78c0.02,0.95 0.04,1.9 0.06,2.88c-0.07,7.15 -2.21,12.38 -6.75,17.93c-5.07,3.88 -8.62,5.11 -15,5c0.02,1.32 0.02,1.32 0.04,2.65c0.12,8.33 0.21,16.65 0.27,24.98c0.03,4.27 0.07,8.55 0.14,12.83c0.57,36.48 0.57,36.48 -6.45,50.54c-0.5,1.01 -1,2.01 -1.51,3.05c-7.94,14.94 -21.95,25.08 -37.49,30.95c-11.43,3.4 -22.14,4.59 -34.01,4.51c-1.64,0.01 -3.28,0.01 -4.93,0.02c-4.45,0.02 -8.91,0.01 -13.37,0c-4.82,-0.01 -9.65,0 -14.48,0.01c-9.43,0.02 -18.87,0.02 -28.3,0.01c-7.68,-0.01 -15.35,-0.01 -23.02,-0.01c-1.1,0 -2.19,0 -3.32,0c-2.22,0 -4.45,0 -6.67,0.01c-20.83,0.01 -41.65,-0.01 -62.48,-0.03c-17.85,-0.02 -35.69,-0.01 -53.53,0.01c-20.76,0.02 -41.52,0.03 -62.27,0.01c-2.22,0 -4.44,0 -6.65,0c-1.09,0 -2.18,0 -3.31,0c-7.65,-0.01 -15.31,0 -22.97,0.01c-9.34,0.01 -18.68,0.01 -28.02,-0.01c-4.76,-0.01 -9.52,-0.02 -14.28,0c-4.36,0.01 -8.73,0 -13.1,-0.02c-1.57,-0.01 -3.14,0 -4.71,0.01c-21.16,0.12 -37.66,-5.86 -53.48,-20.25c-4.01,-4.12 -6.71,-8.84 -9.35,-13.9c-0.33,-0.61 -0.66,-1.23 -1,-1.86c-5.51,-11.12 -6.2,-23.33 -6.14,-35.51c0,-1.46 0,-2.92 -0.01,-4.38c-0.01,-3.97 -0.01,-7.94 0,-11.9c0.01,-4.3 0,-8.59 -0.01,-12.89c-0.01,-8.4 -0.01,-16.79 0,-25.19c0.01,-6.83 0.01,-13.66 0,-20.49c0,-0.97 0,-1.95 0,-2.95c0,-1.98 0,-3.96 0,-5.94c-0.01,-18.53 0,-37.06 0.02,-55.59c0.01,-15.88 0.01,-31.76 -0.01,-47.65c-0.01,-18.46 -0.02,-36.93 -0.01,-55.4c0,-1.97 0,-3.95 0,-5.92c0,-0.97 0,-1.94 0.01,-2.94c0,-6.81 -0.01,-13.63 -0.01,-20.44c-0.01,-8.32 -0.01,-16.63 0.01,-24.94c0,-4.24 0.01,-8.47 0,-12.71c-0.01,-3.89 -0.01,-7.77 0.01,-11.66c0,-1.39 0,-2.79 -0.01,-4.19c-0.09,-19.2 5.09,-34.7 18.4,-48.83c5.24,-5.11 11.11,-8.86 17.56,-12.25c0.58,-0.31 1.16,-0.63 1.76,-0.96c12.42,-6.18 26.35,-7.38 39.98,-7.3z" fill="#5ED7C1" id="svg_2"/>
  <path d="m321.3,292.49c1.56,-0.01 3.13,-0.01 4.69,-0.02c4.25,-0.02 8.5,-0.01 12.74,0c4.6,0 9.2,-0.01 13.8,-0.02c8.99,-0.03 17.98,-0.03 26.97,-0.02c7.32,0.01 14.63,0.01 21.95,0c1.04,0 2.08,0 3.16,0c2.12,0 4.24,-0.01 6.36,-0.01c19.86,-0.01 39.72,-0.01 59.58,0.01c18.14,0.02 36.27,0 54.4,-0.03c18.66,-0.03 37.32,-0.04 55.99,-0.03c2.11,0 4.22,0 6.34,0c1.04,0 2.08,0.01 3.15,0.01c7.29,0 14.59,-0.01 21.89,-0.03c8.9,-0.01 17.8,-0.01 26.71,0.01c4.53,0.01 9.07,0.01 13.6,-0.01c44.39,-0.16 44.39,-0.16 62.37,12.65c0.66,0.46 1.32,0.93 2,1.4c10.11,7.83 17.56,21.11 20,33.6c0.22,3.63 0.15,7.24 0.09,10.87c0,2.13 0,4.25 0,6.37c-0.01,3.32 -0.03,6.64 -0.09,9.96c-0.67,12.53 -0.67,12.53 2.94,24.15c2.24,2.2 4.5,3.86 7.06,5.65c7.53,9.83 11.13,22.53 11.11,34.81c0,0.67 0,1.33 0,2.02c0,2.18 -0.01,4.36 -0.02,6.54c0,1.52 0,3.03 0,4.55c-0.01,3.98 -0.02,7.97 -0.03,11.95c-0.01,4.07 -0.01,8.14 -0.02,12.21c-0.01,7.97 -0.02,15.95 -0.04,23.92c1.09,0.15 2.18,0.29 3.31,0.44c7.16,1.1 10.69,4.3 15.27,9.63c2.22,3.03 2.54,5.61 2.58,9.25c0.01,0.88 0.02,1.77 0.03,2.67c0,0.97 0.01,1.93 0.01,2.93c0.01,1.02 0.02,2.03 0.03,3.08c0.03,3.38 0.05,6.76 0.07,10.13c0.01,1.16 0.02,2.31 0.02,3.5c0.04,6.11 0.06,12.23 0.08,18.34c0.02,5.05 0.05,10.1 0.1,15.16c0.06,6.1 0.09,12.21 0.1,18.31c0.01,2.32 0.03,4.65 0.06,6.97c0.04,3.26 0.04,6.52 0.03,9.78c0.02,0.95 0.04,1.9 0.06,2.88c-0.07,7.15 -2.21,12.38 -6.75,17.93c-5.07,3.88 -8.62,5.11 -15,5c0.02,1.32 0.02,1.32 0.04,2.65c0.12,8.33 0.21,16.65 0.27,24.98c0.03,4.27 0.07,8.55 0.14,12.83c0.57,36.48 0.57,36.48 -6.45,50.54c-0.5,1.01 -1,2.01 -1.51,3.05c-7.94,14.94 -21.95,25.08 -37.49,30.95c-11.43,3.4 -22.14,4.59 -34.01,4.51c-1.64,0.01 -3.28,0.01 -4.93,0.02c-4.45,0.02 -8.91,0.01 -13.37,0c-4.82,-0.01 -9.65,0 -14.48,0.01c-9.43,0.02 -18.87,0.02 -28.3,0.01c-7.68,-0.01 -15.35,-0.01 -23.02,-0.01c-1.1,0 -2.19,0 -3.32,0c-2.22,0 -4.45,0 -6.67,0.01c-20.83,0.01 -41.65,-0.01 -62.48,-0.03c-17.85,-0.02 -35.69,-0.01 -53.53,0.01c-20.76,0.02 -41.52,0.03 -62.27,0.01c-2.22,0 -4.44,0 -6.65,0c-1.09,0 -2.18,0 -3.31,0c-7.65,-0.01 -15.31,0 -22.97,0.01c-9.34,0.01 -18.68,0.01 -28.02,-0.01c-4.76,-0.01 -9.52,-0.02 -14.28,0c-4.36,0.01 -8.73,0 -13.1,-0.02c-1.57,-0.01 -3.14,0 -4.71,0.01c-21.16,0.12 -37.66,-5.86 -53.48,-20.25c-4.01,-4.12 -6.71,-8.84 -9.35,-13.9c-0.33,-0.61 -0.66,-1.23 -1,-1.86c-5.51,-11.12 -6.2,-23.33 -6.14,-35.51c0,-1.46 0,-2.92 -0.01,-4.38c-0.01,-3.97 -0.01,-7.94 0,-11.9c0.01,-4.3 0,-8.59 -0.01,-12.89c-0.01,-8.4 -0.01,-16.79 0,-25.19c0.01,-6.83 0.01,-13.66 0,-20.49c0,-0.97 0,-1.95 0,-2.95c0,-1.98 0,-3.96 0,-5.94c-0.01,-18.53 0,-37.06 0.02,-55.59c0.01,-15.88 0.01,-31.76 -0.01,-47.65c-0.01,-18.46 -0.02,-36.93 -0.01,-55.4c0,-1.97 0,-3.95 0,-5.92c0,-0.97 0,-1.94 0.01,-2.94c0,-6.81 -0.01,-13.63 -0.01,-20.44c-0.01,-8.32 -0.01,-16.63 0.01,-24.94c0,-4.24 0.01,-8.47 0,-12.71c-0.01,-3.89 -0.01,-7.77 0.01,-11.66c0,-1.39 0,-2.79 -0.01,-4.19c-0.09,-19.2 5.09,-34.7 18.4,-48.83c5.24,-5.11 11.11,-8.86 17.56,-12.25c0.58,-0.31 1.16,-0.63 1.76,-0.96c12.42,-6.18 26.35,-7.38 39.98,-7.3zm-45.3,103.51c-0.1,38.82 -0.17,77.63 -0.21,116.44c0,4.59 -0.01,9.17 -0.01,13.75c-0.01,0.92 -0.01,1.83 -0.01,2.77c-0.02,14.77 -0.05,29.54 -0.08,44.31c-0.04,15.15 -0.06,30.31 -0.07,45.47c-0.01,9.35 -0.02,18.7 -0.06,28.05c-0.02,6.42 -0.02,12.83 -0.02,19.25c0,3.7 0,7.4 -0.02,11.1c-0.02,4.01 -0.02,8.03 -0.01,12.05c-0.01,1.74 -0.01,1.74 -0.03,3.51c0.06,8.38 1.81,14.9 6.2,22.05c7.35,7.15 15.02,10.5 25.34,10.51c1.02,0.01 1.02,0.01 2.05,0.01c2.25,0.01 4.5,0.01 6.76,0c1.63,0.01 3.27,0.01 4.9,0.02c4.49,0.01 8.98,0.01 13.47,0.01c4.84,0 9.68,0.01 14.52,0.02c9.49,0.01 18.97,0.02 28.46,0.02c7.71,0 15.42,0 23.13,0.01c21.87,0.02 43.73,0.03 65.6,0.03c1.18,0 2.36,0 3.57,0c1.77,0 1.77,0 3.58,0c19.12,-0.01 38.24,0.01 57.37,0.04c19.63,0.03 39.27,0.04 58.91,0.04c11.03,0 22.05,0.01 33.08,0.03c9.38,0.02 18.77,0.02 28.16,0.01c4.79,-0.01 9.57,-0.01 14.36,0.01c4.39,0.01 8.78,0.01 13.16,-0.01c1.59,0 3.17,0 4.75,0.02c11.75,0.07 23,-1 32.4,-8.75c8.58,-8.66 11.13,-18.01 11.09,-29.89c-0.02,-1.44 -0.04,-2.87 -0.05,-4.31c-0.01,-1.49 -0.01,-2.98 -0.01,-4.48c-0.02,-3.89 -0.05,-7.79 -0.08,-11.69c-0.03,-3.99 -0.04,-7.98 -0.06,-11.97c-0.03,-7.81 -0.08,-15.62 -0.14,-23.43c-0.95,0 -1.89,0 -2.87,-0.01c-8.95,-0.03 -17.91,-0.09 -26.87,-0.17c-4.6,-0.04 -9.2,-0.07 -13.81,-0.09c-4.45,-0.01 -8.91,-0.05 -13.36,-0.09c-1.69,-0.02 -3.38,-0.03 -5.06,-0.03c-19.7,-0.02 -37.1,-4.17 -51.82,-18.29c-6.46,-6.74 -10.98,-13.53 -14.21,-22.32c-0.4,-1.06 -0.79,-2.13 -1.2,-3.23c-2.8,-9.1 -3.22,-17.96 -3.3,-27.45c-0.02,-1.21 -0.04,-2.42 -0.06,-3.67c0.11,-16.81 6.46,-32.21 18.11,-44.36c11.59,-10.82 25.01,-17.56 40.97,-17.6c0.81,-0.01 1.62,-0.02 2.46,-0.03c2.65,-0.04 5.3,-0.05 7.95,-0.07c1.85,-0.02 3.7,-0.04 5.55,-0.06c4.85,-0.05 9.69,-0.09 14.54,-0.13c4.95,-0.04 9.91,-0.09 14.86,-0.14c9.71,-0.09 19.41,-0.18 29.12,-0.26c0.07,-7.65 0.12,-15.3 0.15,-22.95c0.02,-3.55 0.04,-7.1 0.07,-10.66c0.04,-4.09 0.05,-8.19 0.07,-12.28c0.01,-1.26 0.03,-2.53 0.05,-3.82c0,-12.39 -2.37,-20.89 -10.9,-29.94c-8.56,-8.06 -18.9,-10.47 -30.37,-10.48c-0.66,0 -1.33,0 -2.01,0c-2.22,-0.01 -4.43,-0.01 -6.65,0c-1.61,-0.01 -3.22,-0.01 -4.82,-0.01c-4.42,-0.01 -8.83,-0.01 -13.24,-0.01c-4.77,0 -9.53,-0.01 -14.29,-0.02c-8.25,-0.01 -16.51,-0.02 -24.76,-0.02c-13.05,-0.01 -26.1,-0.04 -39.15,-0.06c-4.47,-0.01 -8.94,-0.01 -13.41,-0.02c-1.11,0 -2.23,0 -3.38,-0.01c-12.71,-0.02 -25.41,-0.04 -38.12,-0.05c-1.16,0 -2.32,-0.01 -3.52,-0.01c-18.81,-0.02 -37.62,-0.04 -56.43,-0.06c-19.33,-0.02 -38.65,-0.05 -57.98,-0.08c-11.91,-0.03 -23.82,-0.04 -35.73,-0.04c-8.17,-0.01 -16.34,-0.02 -24.51,-0.04c-4.71,-0.01 -9.42,-0.02 -14.13,-0.01c-4.32,0 -8.64,-0.01 -12.96,-0.03c-1.55,0 -3.1,0 -4.66,0.01c-13.09,0.04 -25.12,-1.48 -37.32,-6.41c-0.99,0 -1.98,0 -3,0z" fill="#206263" id="svg_3"/>
  <path d="m320.67,325.48c1.57,-0.01 3.14,-0.01 4.71,-0.02c4.28,-0.02 8.56,-0.02 12.85,-0.01c4.63,0 9.26,-0.01 13.89,-0.03c9.06,-0.02 18.12,-0.03 27.19,-0.02c7.36,0 14.73,0 22.1,-0.01c1.05,0 2.1,0 3.18,-0.01c2.13,0 4.26,0 6.4,0c19.98,-0.02 39.97,-0.02 59.95,-0.01c18.27,0.01 36.55,-0.01 54.82,-0.05c18.77,-0.04 37.55,-0.05 56.33,-0.05c10.53,0.01 21.07,0 31.6,-0.03c8.97,-0.02 17.94,-0.02 26.91,0c4.57,0.01 9.14,0.02 13.72,-0.01c4.19,-0.02 8.38,-0.01 12.57,0.01c1.51,0.01 3.02,0.01 4.53,-0.01c10.36,-0.1 19.8,1.22 27.61,8.72c6.85,8.04 7.41,18.06 7.16,28.18c-0.01,1.05 -0.03,2.1 -0.04,3.18c-0.04,2.57 -0.09,5.13 -0.15,7.69c-0.75,-0.14 -1.49,-0.28 -2.26,-0.43c-9.11,-1.58 -18.02,-1.85 -27.23,-1.82c-1.63,0 -3.27,-0.01 -4.9,-0.01c-4.46,-0.01 -8.91,0 -13.37,0c-4.81,0.01 -9.63,0 -14.45,0c-8.33,-0.01 -16.67,-0.02 -25.01,-0.01c-12.06,0 -24.13,-0.01 -36.2,-0.03c-19.59,-0.02 -39.18,-0.04 -58.77,-0.06c-1.76,0 -1.76,0 -3.55,0c-16.64,-0.01 -33.27,-0.02 -49.9,-0.02c-1.18,0 -2.35,0 -3.56,0c-1.17,0 -2.34,0 -3.54,0c-19.53,0 -39.05,-0.02 -58.58,-0.05c-12.03,-0.02 -24.07,-0.03 -36.1,-0.02c-8.25,0.01 -16.49,0 -24.73,-0.02c-4.76,-0.01 -9.51,-0.01 -14.27,0c-4.35,0.01 -8.71,0 -13.06,-0.02c-1.58,0 -3.15,0 -4.72,0.01c-11.5,0.07 -22.11,-1.26 -30.8,-9.52c-2.8,-3.98 -3.72,-7.75 -3.53,-12.57c1.46,-6.67 6.35,-11.92 11.78,-15.8c10.31,-5.96 19.7,-7.21 31.42,-7.15z" fill="#5FD6C1" id="svg_4"/>
  <path d="m652.16,524.88c1.27,0 1.27,0 2.56,0c0.93,0 1.85,0 2.8,0.01c1.47,0 1.47,0 2.96,0c3.23,0 6.46,0 9.69,0.01c2.24,0 4.48,0.01 6.71,0.01c5.9,0 11.79,0.01 17.69,0.02c7.06,0.01 14.13,0.02 21.2,0.02c10.75,0.01 21.49,0.03 32.23,0.05c0,24.09 0,48.18 0,73c-24.88,0.16 -24.88,0.16 -35.51,0.2c-7.24,0.02 -14.49,0.05 -21.73,0.1c-5.84,0.05 -11.69,0.07 -17.53,0.08c-2.22,0.01 -4.45,0.02 -6.68,0.04c-3.12,0.03 -6.24,0.04 -9.37,0.03c-0.91,0.02 -1.83,0.03 -2.77,0.05c-8.66,-0.06 -15.2,-3.38 -21.45,-9.32c-7.08,-7.87 -7.72,-17.11 -7.52,-27.24c-0.01,-1.2 -0.02,-2.41 -0.03,-3.64c0.07,-9.06 1.76,-15.96 6.72,-23.55c5.47,-5.23 12.26,-9.88 20.03,-9.87z" fill="#ED9E6D" id="svg_5"/>
 </g>
</svg>