<?xml version="1.0"?>
<svg width="96" height="96" xmlns="http://www.w3.org/2000/svg" xmlns:svg="http://www.w3.org/2000/svg" version="1.1">
 <g class="layer">
  <title>Layer 1</title>
  <g id="surface1" transform="translate(14.0608 17.4024) scale(0.977511 0.945487) translate(-14.0608 -17.4024) translate(84.5203 81.9936) matrix(1.39484 0 0 1.46986 -102.14 -104.698)">
   <path d="m30.12,27.42c0.15,0 0.29,0 0.44,0c0.4,0 0.8,0 1.2,0c0.43,0 0.86,0 1.29,0c0.84,-0.01 1.68,-0.01 2.53,-0.01c0.69,0.01 1.37,0.01 2.06,0c0.09,0 0.19,0 0.29,0c0.2,0 0.4,0 0.6,0c1.86,0 3.72,0 5.58,0c1.71,0.01 3.41,0 5.1,0c1.75,0 3.5,0 5.25,0c0.2,0 0.4,0 0.6,0c0.1,0 0.19,0 0.29,0c0.69,0 1.37,0 2.06,0c0.83,0 1.66,0 2.5,0c0.42,0 0.85,0 1.27,0c4.16,-0.02 4.16,-0.02 5.85,1.18c0.06,0.05 0.13,0.09 0.19,0.14c0.95,0.73 1.64,1.97 1.87,3.15c0.02,0.33 0.02,0.67 0.01,1.01c0,0.2 0,0.4 0,0.6c0,0.31 0,0.62 -0.01,0.94c-0.06,1.17 -0.06,1.17 0.28,2.26c0.21,0.2 0.42,0.36 0.66,0.53c0.71,0.92 1.04,2.11 1.04,3.26c0,0.07 0,0.13 0,0.19c0,0.21 0,0.41 0,0.62c0,0.14 0,0.28 0,0.42c0,0.38 0,0.75 0,1.12c0,0.38 0,0.76 0,1.15c0,0.74 -0.01,1.49 -0.01,2.24c0.1,0.01 0.21,0.03 0.31,0.04c0.67,0.1 1.01,0.4 1.43,0.9c0.21,0.29 0.24,0.53 0.25,0.87c0,0.08 0,0.17 0,0.25c0,0.09 0,0.18 0,0.27c0,0.1 0,0.2 0,0.29c0,0.32 0.01,0.64 0.01,0.95c0,0.11 0,0.22 0,0.33c0.01,0.58 0.01,1.15 0.01,1.72c0,0.47 0,0.95 0.01,1.42c0,0.58 0.01,1.15 0.01,1.72c0,0.22 0,0.43 0,0.65c0.01,0.31 0.01,0.61 0.01,0.92c0,0.09 0,0.18 0,0.27c-0.01,0.67 -0.21,1.16 -0.63,1.68c-0.48,0.36 -0.81,0.48 -1.41,0.47c0,0.12 0,0.12 0.01,0.25c0.01,0.78 0.02,1.56 0.02,2.34c0,0.4 0.01,0.8 0.02,1.2c0.05,3.42 0.05,3.42 -0.61,4.74c-0.05,0.09 -0.09,0.19 -0.14,0.29c-0.75,1.4 -2.06,2.35 -3.52,2.9c-1.07,0.32 -2.07,0.43 -3.18,0.42c-0.16,0 -0.31,0 -0.47,0c-0.41,0 -0.83,0 -1.25,0c-0.45,0 -0.9,0 -1.36,0c-0.88,0 -1.77,0 -2.65,0c-0.72,0 -1.44,0 -2.16,0c-0.1,0 -0.2,0 -0.31,0c-0.21,0 -0.42,0 -0.62,0c-1.96,0 -3.91,0 -5.86,0c-1.68,0 -3.35,0 -5.02,0c-1.95,0 -3.89,0 -5.84,0c-0.21,0 -0.42,0 -0.62,0c-0.11,0 -0.21,0 -0.31,0c-0.72,0 -1.44,0 -2.15,0c-0.88,0 -1.76,0 -2.63,0c-0.45,0 -0.89,0 -1.34,0c-0.41,0 -0.82,0 -1.23,0c-0.15,0 -0.29,0 -0.44,0c-1.99,0.02 -3.53,-0.55 -5.02,-1.9c-0.37,-0.38 -0.63,-0.82 -0.87,-1.3c-0.03,-0.06 -0.06,-0.11 -0.1,-0.18c-0.51,-1.03 -0.58,-2.18 -0.57,-3.32c0,-0.14 0,-0.28 0,-0.41c0,-0.37 0,-0.75 0,-1.12c0,-0.4 0,-0.81 0,-1.21c0,-0.78 0,-1.57 0,-2.36c0,-0.64 0,-1.28 0,-1.92c0,-0.09 0,-0.18 0,-0.28c0,-0.18 0,-0.37 0,-0.56c0,-1.73 0,-3.47 0,-5.21c0,-1.48 0,-2.97 0,-4.46c0,-1.73 0,-3.47 0,-5.2c0,-0.18 0,-0.37 0,-0.55c0,-0.09 0,-0.18 0,-0.28c0,-0.64 0,-1.28 0,-1.91c0,-0.78 0,-1.56 0,-2.34c0,-0.4 0,-0.8 0,-1.19c0,-0.37 0,-0.73 0,-1.1c0,-0.13 0,-0.26 0,-0.39c-0.01,-1.8 0.48,-3.25 1.72,-4.58c0.49,-0.48 1.05,-0.83 1.65,-1.14c0.05,-0.03 0.11,-0.06 0.17,-0.09c1.16,-0.58 2.46,-0.7 3.74,-0.69zm-4.24,9.71c-0.01,3.64 -0.02,7.27 -0.02,10.91c0,0.43 0,0.86 0,1.29c-0.01,0.09 -0.01,0.17 -0.01,0.26c0,1.39 0,2.77 0,4.15c-0.01,1.42 -0.01,2.85 -0.01,4.27c0,0.87 0,1.75 -0.01,2.63c0,0.6 0,1.2 0,1.8c0,0.35 0,0.7 0,1.04c0,0.38 0,0.75 0,1.13c0,0.16 0,0.16 0,0.33c0,0.79 0.17,1.4 0.58,2.07c0.69,0.67 1.41,0.98 2.37,0.98c0.1,0 0.1,0 0.2,0c0.21,0.01 0.42,0.01 0.63,0c0.15,0.01 0.3,0.01 0.46,0.01c0.42,0 0.84,0 1.26,0c0.46,0 0.91,0 1.36,0c0.89,0 1.78,0 2.67,0c0.72,0 1.44,0 2.17,0c2.05,0 4.1,0 6.15,0c0.11,0 0.22,0 0.34,0c0.16,0 0.16,0 0.33,0c1.79,0 3.58,0 5.38,0.01c1.84,0 3.68,0 5.52,0c1.04,0 2.07,0 3.1,0.01c0.88,0 1.76,0 2.64,0c0.45,0 0.9,0 1.35,0c0.41,0 0.82,0 1.23,0c0.15,0 0.3,0 0.45,0c1.1,0 2.15,-0.1 3.03,-0.82c0.81,-0.81 1.05,-1.69 1.04,-2.81c0,-0.13 0,-0.26 0,-0.4c0,-0.14 0,-0.28 0,-0.42c0,-0.36 0,-0.73 -0.01,-1.09c0,-0.38 0,-0.75 -0.01,-1.13c0,-0.73 0,-1.46 -0.01,-2.19c-0.09,0 -0.17,0 -0.27,0c-0.84,-0.01 -1.68,-0.01 -2.52,-0.02c-0.43,0 -0.86,-0.01 -1.29,-0.01c-0.42,0 -0.84,0 -1.25,-0.01c-0.16,0 -0.32,0 -0.48,0c-1.84,0 -3.48,-0.39 -4.86,-1.71c-0.6,-0.64 -1.02,-1.27 -1.33,-2.1c-0.04,-0.1 -0.07,-0.2 -0.11,-0.3c-0.26,-0.85 -0.3,-1.69 -0.31,-2.57c0,-0.12 0,-0.23 0,-0.35c0,-1.57 0.6,-3.02 1.69,-4.16c1.09,-1.01 2.35,-1.64 3.84,-1.64c0.08,-0.01 0.15,-0.01 0.24,-0.01c0.24,0 0.49,0 0.74,-0.01c0.17,0 0.35,0 0.52,0c0.46,0 0.91,-0.01 1.36,-0.01c0.47,-0.01 0.93,-0.01 1.4,-0.02c0.91,-0.01 1.82,-0.01 2.73,-0.02c0,-0.72 0.01,-1.43 0.01,-2.15c0,-0.34 0.01,-0.67 0.01,-1c0,-0.39 0,-0.77 0,-1.15c0,-0.12 0.01,-0.24 0.01,-0.36c0,-1.16 -0.23,-1.96 -1.02,-2.81c-0.81,-0.75 -1.78,-0.98 -2.85,-0.98c-0.06,0 -0.12,0 -0.19,0c-0.21,0 -0.42,0 -0.62,0c-0.15,0 -0.3,0 -0.46,0c-0.41,0 -0.82,0 -1.24,0c-0.44,0 -0.89,0 -1.34,0c-0.77,0 -1.54,-0.01 -2.32,-0.01c-1.22,0 -2.44,0 -3.67,0c-0.42,0 -0.84,0 -1.25,0c-0.11,0 -0.21,0 -0.32,-0.01c-1.19,0 -2.38,0 -3.57,0c-0.11,0 -0.22,0 -0.34,0c-1.76,0 -3.52,0 -5.29,-0.01c-1.81,0 -3.62,0 -5.43,-0.01c-1.12,0 -2.23,0 -3.35,0c-0.77,0 -1.53,0 -2.3,0c-0.44,0 -0.88,0 -1.32,0c-0.41,0 -0.81,0 -1.22,0c-0.14,0 -0.29,0 -0.43,0c-1.23,0 -2.36,-0.14 -3.5,-0.6c-0.1,0 -0.19,0 -0.28,0zm0,0" fill="rgb(12.54902%,38.431373%,38.82353%)" fill-rule="nonzero" id="svg_1"/>
   <path d="m30.06,30.52c0.15,-0.01 0.3,-0.01 0.44,-0.01c0.41,0 0.81,0 1.21,0c0.43,0 0.87,0 1.3,0c0.85,0 1.7,-0.01 2.55,0c0.69,0 1.38,0 2.07,-0.01c0.1,0 0.2,0 0.3,0c0.2,0 0.4,0 0.6,0c1.87,0 3.75,0 5.62,0c1.71,0 3.43,0 5.14,0c1.76,0 3.52,-0.01 5.28,-0.01c0.99,0.01 1.98,0 2.97,0c0.84,0 1.67,0 2.51,0c0.43,0 0.86,0 1.29,0c0.39,0 0.79,0 1.18,0c0.14,0 0.28,0 0.43,0c0.97,-0.01 1.85,0.12 2.59,0.82c0.64,0.75 0.69,1.69 0.67,2.64c-0.01,0.1 -0.01,0.2 -0.01,0.3c0,0.24 -0.01,0.48 -0.01,0.72c-0.07,-0.01 -0.14,-0.03 -0.21,-0.04c-0.86,-0.15 -1.69,-0.18 -2.56,-0.17c-0.15,0 -0.3,0 -0.46,0c-0.41,0 -0.83,0 -1.25,0c-0.45,0 -0.9,0 -1.35,0c-0.79,0 -1.57,-0.01 -2.35,0c-1.13,0 -2.26,-0.01 -3.39,-0.01c-1.84,0 -3.67,0 -5.51,0c-0.17,0 -0.17,0 -0.34,0c-1.56,0 -3.11,0 -4.67,0c-0.12,0 -0.22,0 -0.34,0c-0.11,0 -0.22,0 -0.33,0c-1.83,0 -3.66,-0.01 -5.49,-0.01c-1.13,0 -2.26,0 -3.39,0c-0.77,0 -1.54,0 -2.32,0c-0.44,-0.01 -0.89,-0.01 -1.33,0c-0.41,0 -0.82,0 -1.23,-0.01c-0.14,0 -0.29,0 -0.44,0c-1.08,0.01 -2.07,-0.11 -2.89,-0.89c-0.26,-0.37 -0.34,-0.72 -0.33,-1.18c0.14,-0.62 0.6,-1.11 1.11,-1.48c0.96,-0.55 1.84,-0.67 2.94,-0.66zm0,0" fill="rgb(100%,100%,100%)" fill-rule="nonzero" id="svg_2"/>
   <path d="m61.14,49.21c0.12,0 0.12,0 0.24,0c0.09,0 0.17,0 0.26,0c0.14,0 0.14,0 0.28,0c0.3,0 0.61,0 0.91,0c0.21,0 0.42,0 0.63,0c0.55,0 1.1,0 1.66,0c0.66,0 1.32,0 1.98,0c1.01,0 2.02,0.01 3.03,0.01c0,2.26 0,4.51 0,6.84c-2.34,0.02 -2.34,0.02 -3.33,0.02c-0.68,0 -1.36,0.01 -2.04,0.01c-0.55,0 -1.1,0.01 -1.64,0.01c-0.21,0 -0.42,0 -0.63,0c-0.29,0.01 -0.59,0.01 -0.88,0.01c-0.09,0 -0.17,0 -0.26,0c-0.81,0 -1.42,-0.32 -2.01,-0.88c-0.66,-0.73 -0.72,-1.6 -0.7,-2.55c-0.01,-0.11 -0.01,-0.22 -0.01,-0.34c0.01,-0.85 0.17,-1.5 0.63,-2.21c0.51,-0.49 1.15,-0.92 1.88,-0.92zm0,0" fill="rgb(100%,100%,100%)" fill-rule="nonzero" id="svg_3"/>
  </g>
 </g>
</svg>